<svg id="Group_23" data-name="Group 23" xmlns="http://www.w3.org/2000/svg" viewBox="0 0 203.66 57.9"><defs><style>.cls-1{fill:#0bd;}.cls-2{fill:#fff;}.cls-3{fill:none;stroke:#fff;stroke-width:2.5px;}.cls-4{fill:#8de1ff;}.cls-5{font-size:43.16px;}.cls-5,.cls-7{font-family:MS-PMincho, MS PMincho;}.cls-6{fill:#ccfbd5;}.cls-7{font-size:12px;fill:#0d0427;}</style></defs><circle id="Ellipse_11" data-name="Ellipse 11" class="cls-1" cx="28.95" cy="28.95" r="28.95"/><path id="Intersection_1" data-name="Intersection 1" class="cls-2" d="M20.71,40.87a14.85,14.85,0,0,1-1.5-1.36h22.2a13,13,0,0,1-1.5,1.36Z" transform="translate(-1.36 -0.52)"/><path id="Path_13" data-name="Path 13" class="cls-3" d="M37.26,27s4.7-2.25,5.18,1-7.7,6-7.7,6" transform="translate(-1.36 -0.52)"/><path id="Path_11" data-name="Path 11" class="cls-2" d="M17.71,21.12H38.15a1.36,1.36,0,0,1,1.36,1.36L35.42,36.1a1.36,1.36,0,0,1-1.36,1.36H21.8a1.38,1.38,0,0,1-1.37-1.36L16.35,22.48A1.36,1.36,0,0,1,17.71,21.12Z" transform="translate(-1.36 -0.52)"/><path id="Intersection_1-2" data-name="Intersection 1" class="cls-2" d="M19.35,40.87a13,13,0,0,1-1.5-1.36h22.2a13.84,13.84,0,0,1-1.5,1.36Z" transform="translate(-1.36 -0.52)"/><g id="Group_21" data-name="Group 21"><path id="Path_31" data-name="Path 31" class="cls-2" d="M13.08,44.61a2.44,2.44,0,0,1-.55.35h-.61a.85.85,0,0,1-.55-.2,3.09,3.09,0,0,1-.54-.48,2.1,2.1,0,0,1-.34-.55,1,1,0,0,1-.2-.61,1.46,1.46,0,0,1-.07-.55.48.48,0,0,1,.2-.41l.68-.54.13.13a2,2,0,0,0-.54,1.16A1.81,1.81,0,0,0,11.1,44c.07.14.2.2.27.27s.2.14.34.14h.34c.14,0,.2-.07.34-.14a.87.87,0,0,0,.34-.54,3.73,3.73,0,0,0-.06-.82l-.2-1.16a2.18,2.18,0,0,1,0-1,1.09,1.09,0,0,1,.47-.68,1.29,1.29,0,0,1,.55-.27.72.72,0,0,1,.54,0,.87.87,0,0,1,.55.2,2.61,2.61,0,0,1,.47.41,1.48,1.48,0,0,1,.35.54,3.27,3.27,0,0,1,.2.55.83.83,0,0,1,0,.54.88.88,0,0,1-.2.41l-.69.54-.13-.13a2,2,0,0,0,.54-1.16,1.55,1.55,0,0,0-.41-1,.9.9,0,0,0-.27-.2.48.48,0,0,0-.34-.14h-.34c-.14,0-.2.07-.34.14a1.05,1.05,0,0,0-.2.27.44.44,0,0,0-.07.27v.34a1.3,1.3,0,0,0,.07.48l.2,1.16c0,.2.07.41.07.54V44a.58.58,0,0,1-.14.34A1.15,1.15,0,0,0,13.08,44.61Z" transform="translate(-1.36 -0.52)"/><path id="Path_32" data-name="Path 32" class="cls-2" d="M14.1,47.34l-.55-.48,1.84-2.18c.14-.2.28-.34.28-.54s0-.34-.2-.48l-.07-.07.13-.13.55.47a1,1,0,0,1,.27.28v.2a1.11,1.11,0,0,1-.14.34,1.22,1.22,0,0,1-.27.41Zm3-3.61a.41.41,0,0,1-.54.07.48.48,0,0,1,0-.68.32.32,0,0,1,.27-.14.44.44,0,0,1,.27.07.52.52,0,0,1,.14.34.48.48,0,0,1-.14.34Z" transform="translate(-1.36 -0.52)"/><path id="Path_33" data-name="Path 33" class="cls-2" d="M17.37,46.25a1.18,1.18,0,0,0,.2-.54.42.42,0,0,0-.27-.41l-.14-.07.07-.14.61.34a.8.8,0,0,1,.34.34.54.54,0,0,1,.07.35h.07a1.1,1.1,0,0,1,.48-.07,1,1,0,0,1,.61.2c.14.07.27.2.41.27a1.62,1.62,0,0,1,.27.41,1.41,1.41,0,0,1,.07.54,1.77,1.77,0,0,1-.27.68l-1.23,2.12-.61-.34,1.22-2.12a3.9,3.9,0,0,1,.2-.47v-.41a.34.34,0,0,0-.13-.27.73.73,0,0,0-.27-.2.49.49,0,0,0-.41-.14c-.14,0-.34.07-.48.07l-1.57,2.72L16,48.77Z" transform="translate(-1.36 -0.52)"/><path id="Path_34" data-name="Path 34" class="cls-2" d="M23.57,47.88a5.72,5.72,0,0,1,.68.28.55.55,0,0,1,.34.34c0,.07.07.13.07.2v.2a.44.44,0,0,1-.07.27c0,.14-.07.2-.14.41l-.13-.07a1.11,1.11,0,0,0-.07-.82,1.48,1.48,0,0,0-.61-.47.75.75,0,0,0-.55,0c-.13.06-.34.13-.48.2a1.32,1.32,0,0,0-.34.47c-.06.2-.2.41-.27.62a1.91,1.91,0,0,0-.13.68,1.24,1.24,0,0,0,.06.54,1.05,1.05,0,0,0,.75.75,2.73,2.73,0,0,0,.75.07,1.42,1.42,0,0,0,.61-.34l.14.13a2,2,0,0,1-.89.41,1.33,1.33,0,0,1-.88-.06,1.68,1.68,0,0,1-.75-.41,1.07,1.07,0,0,1-.41-.55,2.15,2.15,0,0,1-.13-.67,2.35,2.35,0,0,1,.13-.74,3.65,3.65,0,0,1,.34-.75,1.94,1.94,0,0,1,.48-.55,2.1,2.1,0,0,1,.68-.27C23,47.82,23.23,47.82,23.57,47.88Z" transform="translate(-1.36 -0.52)"/><path id="Path_35" data-name="Path 35" class="cls-2" d="M29,50.81l-2.46-.13v.61a.63.63,0,0,0,.21.48.8.8,0,0,0,.34.34,1,1,0,0,0,.47.13,1.06,1.06,0,0,0,.68-.13,1.69,1.69,0,0,0,.55-.48l.14.14a2,2,0,0,1-.69.61,1.72,1.72,0,0,1-.81.14,1.48,1.48,0,0,1-.75-.2,1.69,1.69,0,0,1-.48-.48,2.1,2.1,0,0,1-.27-.68,3.25,3.25,0,0,1-.07-.82,2.69,2.69,0,0,1,.14-.75,2.59,2.59,0,0,1,.34-.61,3.15,3.15,0,0,1,.55-.41,1.91,1.91,0,0,1,.67-.14,1.49,1.49,0,0,1,1.56,1.41,1.43,1.43,0,0,1-.06.5Zm-.68-.34a2.53,2.53,0,0,0-.14-1.09.65.65,0,0,0-.61-.41.66.66,0,0,0-.62.34c-.07.16-.14.32-.2.48s-.06.34-.13.61Z" transform="translate(-1.36 -0.52)"/><path id="Path_36" data-name="Path 36" class="cls-2" d="M35.9,51.22a1,1,0,0,0,.68-.41.82.82,0,0,0,.07-.68l.13-.07.14.54c0,.07.07.14.07.28s0,.13-.07.2-.07.13-.14.2a.51.51,0,0,1-.34.13l-2.79.82-.07-.48a11.16,11.16,0,0,1,.82-1.36,5.65,5.65,0,0,0,.54-1.07,4.79,4.79,0,0,0,.27-.89,2,2,0,0,0-.06-.88,3.45,3.45,0,0,0-.2-.48.65.65,0,0,0-.34-.27,1.05,1.05,0,0,0-.41-.14.83.83,0,0,0-.41.07,1.21,1.21,0,0,0-.75.54,2,2,0,0,0-.2,1.16H32.7a2,2,0,0,1-.13-.54,1.27,1.27,0,0,1,.06-.48,1.91,1.91,0,0,1,.48-.61,1.77,1.77,0,0,1,.82-.41,2.23,2.23,0,0,1,1.09,0,2.15,2.15,0,0,1,.54.34,1.47,1.47,0,0,1,.34.75,1.62,1.62,0,0,1,0,1,3.1,3.1,0,0,1-.4,1c-.2.34-.41.68-.69,1.09a11.79,11.79,0,0,0-.74,1.23Z" transform="translate(-1.36 -0.52)"/><path id="Path_37" data-name="Path 37" class="cls-2" d="M38,44.62a1.64,1.64,0,0,1,.89-.28,1.76,1.76,0,0,1,.81.2,2.79,2.79,0,0,1,.75.62,10.88,10.88,0,0,1,.68,1,3.78,3.78,0,0,1,.48,1.09,2.41,2.41,0,0,1,.14,1,1.84,1.84,0,0,1-.2.82,1.24,1.24,0,0,1-.68.61,2.78,2.78,0,0,1-.89.27,1.84,1.84,0,0,1-.82-.2,2.91,2.91,0,0,1-.74-.61c-.25-.31-.47-.63-.69-1A3.79,3.79,0,0,1,37.27,47a2.58,2.58,0,0,1-.15-1,1.76,1.76,0,0,1,.2-.81A1.46,1.46,0,0,1,38,44.62Zm.2.27a1.15,1.15,0,0,0-.41.41,1.55,1.55,0,0,0-.07.61,4.88,4.88,0,0,0,.2.75,8.38,8.38,0,0,0,.55,1,11.22,11.22,0,0,0,.61,1,2.48,2.48,0,0,0,.55.61.87.87,0,0,0,.55.2.8.8,0,0,0,.54-.13,1.15,1.15,0,0,0,.41-.41,1.45,1.45,0,0,0,.07-.62,3.86,3.86,0,0,0-.2-.74,7.81,7.81,0,0,0-.55-1,9.19,9.19,0,0,0-.61-.95,2.42,2.42,0,0,0-.54-.61.87.87,0,0,0-.55-.2.52.52,0,0,0-.55.14Z" transform="translate(-1.36 -0.52)"/><path id="Path_38" data-name="Path 38" class="cls-2" d="M45,46.25l-.54.48-3.07-3.41-.2,1-.2-.06.2-1.7.27-.28Z" transform="translate(-1.36 -0.52)"/><path id="Path_39" data-name="Path 39" class="cls-2" d="M43.39,39.78a2.64,2.64,0,0,1,.68-.61,1.78,1.78,0,0,1,.82-.14,3.13,3.13,0,0,1,1,.27,4.18,4.18,0,0,1,1,.61,11.52,11.52,0,0,1,.89.82,6.52,6.52,0,0,1,.55.82,1.16,1.16,0,0,1,.06.82,1.5,1.5,0,0,1-.41.81,2.87,2.87,0,0,1-.68.62,1.71,1.71,0,0,1-.81.13,2.86,2.86,0,0,1-1-.27,4.06,4.06,0,0,1-1-.61,11.52,11.52,0,0,1-.89-.82,3,3,0,0,1-.54-.82A1.13,1.13,0,0,1,43,40.6,4.83,4.83,0,0,1,43.39,39.78Zm.27.2a1,1,0,0,0-.2.54,1.49,1.49,0,0,0,.14.55,2.1,2.1,0,0,0,.54.61c.2.2.55.48.89.75A5,5,0,0,0,46,43a6.21,6.21,0,0,0,.75.34.94.94,0,0,0,.62,0,1.21,1.21,0,0,0,.47-.34.82.82,0,0,0,.2-.54,1.77,1.77,0,0,0-.13-.55,2.46,2.46,0,0,0-.55-.61,10.37,10.37,0,0,0-.89-.75,5.5,5.5,0,0,0-1-.61,6.36,6.36,0,0,0-.75-.34.91.91,0,0,0-.61,0,1.17,1.17,0,0,0-.48.34Z" transform="translate(-1.36 -0.52)"/></g><circle id="Ellipse_9" data-name="Ellipse 9" class="cls-4" cx="6.2" cy="28.42" r="2.04"/><circle id="Ellipse_9-2" data-name="Ellipse 9" class="cls-4" cx="48.97" cy="28.42" r="2.04"/><text class="cls-5" transform="translate(61.55 41.71) scale(0.94 1)">Portfolio</text><g id="Ellipse_11-2" data-name="Ellipse 11"><circle id="Ellipse_13" data-name="Ellipse 13" class="cls-6" cx="28.95" cy="29.09" r="26.57"/><g id="Group_19" data-name="Group 19"><path id="Path_22" data-name="Path 22" class="cls-6" d="M30.31,3.73A25.89,25.89,0,1,1,4.43,29.61h0A25.87,25.87,0,0,1,30.29,3.73h0m0-1.36A27.25,27.25,0,1,0,57.56,29.61,27.24,27.24,0,0,0,30.31,2.37Z" transform="translate(-1.36 -0.52)"/></g></g><g id="Ellipse_11-3" data-name="Ellipse 11"><circle id="Ellipse_14" data-name="Ellipse 14" class="cls-4" cx="28.9" cy="29.47" r="16.01"/><path id="Path_23" data-name="Path 23" class="cls-2" d="M30.27,14.67A15.33,15.33,0,1,1,14.94,30,15.32,15.32,0,0,1,30.27,14.67m0-1.36A16.69,16.69,0,1,0,47,30,16.69,16.69,0,0,0,30.27,13.31Z" transform="translate(-1.36 -0.52)"/></g><text class="cls-7" transform="translate(7.51 32.57) scale(1.06 1)">Portfolio</text></svg>